<?xml version="1.0" encoding="utf-8"?>
<!-- Generator: Adobe Illustrator 25.4.1, SVG Export Plug-In . SVG Version: 6.00 Build 0)  -->
<svg version="1.1" id="레이어_1" xmlns="http://www.w3.org/2000/svg" xmlns:xlink="http://www.w3.org/1999/xlink" x="0px"
	 y="0px" viewBox="0 0 469 142.7" style="enable-background:new 0 0 469 142.7;" xml:space="preserve">
<style type="text/css">
	.st0{fill-rule:evenodd;clip-rule:evenodd;fill:#A1C51C;}
	.st1{fill-rule:evenodd;clip-rule:evenodd;fill:#A2C617;}
	.st2{fill-rule:evenodd;clip-rule:evenodd;fill:#A8C82A;}
	.st3{fill-rule:evenodd;clip-rule:evenodd;fill:#ACCA35;}
	.st4{fill-rule:evenodd;clip-rule:evenodd;fill:#B1CD42;}
	.st5{fill-rule:evenodd;clip-rule:evenodd;fill:#B6CF4F;}
	.st6{fill-rule:evenodd;clip-rule:evenodd;fill:#BAD25C;}
	.st7{fill-rule:evenodd;clip-rule:evenodd;fill:#BFD466;}
	.st8{fill-rule:evenodd;clip-rule:evenodd;fill:#C5D873;}
	.st9{fill-rule:evenodd;clip-rule:evenodd;fill:#CADB7F;}
	.st10{fill-rule:evenodd;clip-rule:evenodd;fill:#CEDE8B;}
	.st11{fill-rule:evenodd;clip-rule:evenodd;fill:#D2E094;}
	.st12{fill-rule:evenodd;clip-rule:evenodd;fill:#D6E39F;}
	.st13{fill-rule:evenodd;clip-rule:evenodd;fill:#D9E6AA;}
	.st14{fill-rule:evenodd;clip-rule:evenodd;fill:#DFE9B5;}
	.st15{fill-rule:evenodd;clip-rule:evenodd;fill:#E3ECC0;}
	.st16{fill-rule:evenodd;clip-rule:evenodd;fill:#E7EEC8;}
	.st17{fill-rule:evenodd;clip-rule:evenodd;fill:#EBF1D2;}
	.st18{fill-rule:evenodd;clip-rule:evenodd;fill:#EEF4DC;}
	.st19{fill-rule:evenodd;clip-rule:evenodd;fill:#F2F6E4;}
	.st20{fill-rule:evenodd;clip-rule:evenodd;fill:#F8FAED;}
	.st21{fill-rule:evenodd;clip-rule:evenodd;fill:#FCFDF6;}
	.st22{fill-rule:evenodd;clip-rule:evenodd;fill:#FFFFFF;}
	.st23{fill:#FFFFFF;}
	.st24{fill:#A1C51E;}
</style>
<path class="st0" d="M310.2,45.7c16.7,0,30.2,13.5,30.2,30.2c0,16.7-13.5,30.2-30.2,30.2c-16.7,0-30.2-13.5-30.2-30.2
	C280,59.2,293.5,45.7,310.2,45.7L310.2,45.7z M310.2,54.2c-12,0-21.7,9.7-21.7,21.7c0,12,9.7,21.7,21.7,21.7
	c12,0,21.7-9.7,21.7-21.7C331.9,63.9,322.1,54.2,310.2,54.2L310.2,54.2z M270.8,99.1V47h-8.5v57.8h2.8
	C268.3,104.8,270.8,102.2,270.8,99.1L270.8,99.1z M235.5,77.8L235.5,77.8c3.2,0,5.7,0.9,7.6,2.8c1.8,1.7,2.8,4,2.8,6.7
	c0,2.8-1,5-3,6.8c-2,1.8-4.5,2.7-7.6,2.7h-6.5c-1.1,0-1.8-0.1-1.9-0.3c-0.2-0.2-0.3-0.9-0.3-1.9V80.2c0-1.2,0.1-1.9,0.3-2.1
	c0.2-0.2,0.8-0.3,1.9-0.3H235.5L235.5,77.8z M233.5,54.6L233.5,54.6c2.6,0,4.6,0.7,6,2.2c1.3,1.4,2,3.3,2,5.7c0,2.3-0.7,4.3-2.2,5.8
	c-1.5,1.6-3.6,2.3-6.1,2.3h-4.6c-1.1,0-1.8-0.1-1.9-0.3c-0.2-0.2-0.3-0.9-0.3-1.9V56.9c0-1.2,0.1-1.9,0.3-2.1
	c0.2-0.2,0.8-0.3,1.9-0.3H233.5L233.5,54.6z M244,73.2L244,73.2c1.8-1.2,3.3-2.8,4.4-4.9c1.2-2.2,1.8-4.6,1.8-7.2
	c0-3.7-1.4-6.9-4.1-9.6c-3-3-6.9-4.5-11.6-4.5h-12c-1.5,0-2.6,0.4-3.4,1.3c-0.7,0.8-1,1.9-1,3.3v48.3c0,1.2,0.3,2.3,1,3.1
	c0.7,0.9,1.8,1.3,3.4,1.3h13.1c5.7,0,10.3-1.7,13.8-5.1c3.3-3.2,4.9-7.2,4.9-12c0-3.4-1-6.4-2.9-9C249.4,75.7,247,74,244,73.2
	L244,73.2z M191.3,79.2H205c2.4,0,4.3-1.9,4.3-4.3v-2.7h-18V79.2L191.3,79.2z M177.7,104.9L177.7,104.9c1.3,0,2.3-0.4,2.9-1.3
	c0.7-0.8,1-2,1-3.5V47h-8.5v42.1l-26.6-38.6c-1-1.5-1.8-2.5-2.5-3c-0.8-0.6-1.8-0.9-2.9-0.9c-1.4,0-2.4,0.5-3.1,1.3
	c-0.6,0.8-0.8,2-0.8,3.6v53.2h2.8c3.1,0,5.7-2.6,5.7-5.7V62.4l26.5,38.6c0.9,1.4,1.8,2.5,2.5,3C175.5,104.6,176.5,104.9,177.7,104.9
	L177.7,104.9z M460.9,104.9h8l-30.4-29.8c-0.6-0.6-0.6-1.3-0.1-1.8l25.2-26.4h-10.9l-20.4,21.8c-0.4,0.5-0.8,0.4-0.8-0.4V47H423
	v57.8h8.5V80.3c0-0.7,0.4-0.9,0.8-0.4l22.5,22.5C456.6,104.1,458.6,104.9,460.9,104.9L460.9,104.9z M390.4,104.8h17
	c3.1,0,5.7-2.6,5.7-5.7v-2.3h-16.5c-2.1,0-2.3-0.2-2.3-2.3V82c0-2,0.3-2.3,2.3-2.3h9.4c3.1,0,5.7-2.6,5.7-5.7v-2.3h-15.1
	c-2.2,0-2.3-0.3-2.3-2.4v-12c0-2.1,0.1-2.3,2.3-2.3h10.8c3.1,0,5.7-2.6,5.7-5.7V47h-22.7c-2.9,0-4.4,1.9-4.4,4.7v48.7
	C386,103,387.6,104.8,390.4,104.8L390.4,104.8z M368.8,55.1h5c3.1,0,5.7-2.6,5.7-5.7V47h-34.2v8.1h10.6c1.8,0,2.3,0.5,2.3,2.3v47.4
	h8.5V57.3C366.6,55.4,366.8,55.1,368.8,55.1z"/>
<path class="st1" d="M34.6,90.3c0-3.6,0.9-6.9,2.4-9.8c0.9-1.7,0.6-3.7-0.8-5.1l-0.1-0.1c-1.4-1.4-3.4-1.7-5.1-0.8
	c-2.9,1.5-6.3,2.4-9.8,2.4C9.5,76.9,0,67.4,0,55.7c0-11.7,9.5-21.2,21.2-21.2c3.5,0,6.9,0.9,9.8,2.4c1.7,0.9,3.7,0.6,5.1-0.8
	l0.1-0.1c1.4-1.4,1.7-3.4,0.8-5.1c-1.5-2.9-2.4-6.3-2.4-9.8C34.6,9.5,44.1,0,55.7,0c11.7,0,21.2,9.5,21.2,21.2
	c0,3.6-0.9,6.9-2.4,9.8c-0.9,1.7-0.6,3.7,0.8,5.1l0.1,0.1c1.4,1.4,3.4,1.7,5.1,0.8c2.9-1.5,6.3-2.4,9.8-2.4
	c11.7,0,21.2,9.5,21.2,21.2c0,11.7-9.5,21.2-21.2,21.2c-3.6,0-6.9-0.9-9.8-2.4c-1.7-0.9-3.7-0.6-5.1,0.8l-0.1,0.1
	c-1.4,1.4-1.7,3.4-0.8,5.1c1.5,2.9,2.4,6.3,2.4,9.8c0,11.7-9.5,21.2-21.2,21.2C44.1,111.5,34.6,102,34.6,90.3L34.6,90.3z M45.9,71.6
	c2.9-1.5,6.3-2.4,9.8-2.4c3.5,0,6.9,0.9,9.8,2.4c1.7,0.9,3.7,0.6,5.1-0.8l0.1-0.1c1.4-1.4,1.7-3.4,0.8-5.1c-1.5-2.9-2.4-6.3-2.4-9.8
	c0-3.5,0.9-6.9,2.4-9.8c0.9-1.7,0.6-3.7-0.8-5.1l-0.1-0.1c-1.4-1.4-3.4-1.7-5.1-0.8c-2.9,1.5-6.3,2.4-9.8,2.4
	c-3.6,0-6.9-0.9-9.8-2.4c-1.7-0.9-3.7-0.6-5.1,0.8l-0.1,0.1c-1.4,1.4-1.7,3.4-0.8,5.1c1.5,2.9,2.4,6.3,2.4,9.8
	c0,3.6-0.9,6.9-2.4,9.8c-0.9,1.7-0.6,3.7,0.8,5.1l0.1,0.1C42.2,72.2,44.2,72.5,45.9,71.6z"/>
<path class="st1" d="M8.2,42.8c7.2-7.2,18.8-7.2,26,0c7.2,7.2,7.2,18.8,0,26c-7.2,7.2-18.8,7.2-26,0C1,61.6,1,49.9,8.2,42.8z"/>
<g>
	<path class="st2" d="M8.6,43.2c6.9-7,18.2-7,25.2,0c7,6.9,7,18.2,0,25.2c-6.9,7-18.2,7-25.2,0C1.6,61.4,1.6,50.1,8.6,43.2z"/>
	<path class="st3" d="M9,43.6c6.7-6.7,17.6-6.7,24.4,0c6.7,6.7,6.7,17.6,0,24.4c-6.7,6.7-17.6,6.7-24.4,0C2.3,61.2,2.3,50.3,9,43.6z
		"/>
	<path class="st4" d="M9.4,44c6.5-6.5,17.1-6.5,23.6,0c6.5,6.5,6.5,17.1,0,23.6c-6.5,6.5-17.1,6.5-23.6,0C2.9,61,2.9,50.5,9.4,44z"
		/>
	<path class="st5" d="M9.8,44.4c6.3-6.3,16.5-6.3,22.8,0c6.3,6.3,6.3,16.5,0,22.8c-6.3,6.3-16.5,6.3-22.8,0
		C3.5,60.8,3.5,50.6,9.8,44.4z"/>
	<path class="st6" d="M10.2,44.8c6.1-6.1,15.9-6.1,21.9,0c6.1,6.1,6.1,15.9,0,21.9c-6.1,6.1-15.9,6.1-21.9,0
		C4.1,60.7,4.1,50.8,10.2,44.8z"/>
	<path class="st7" d="M10.6,45.2c5.8-5.8,15.3-5.8,21.1,0c5.8,5.8,5.8,15.3,0,21.1c-5.8,5.8-15.3,5.8-21.1,0
		C4.8,60.5,4.8,51,10.6,45.2z"/>
	<path class="st8" d="M11,45.6c5.6-5.6,14.7-5.6,20.3,0c5.6,5.6,5.6,14.7,0,20.3c-5.6,5.6-14.7,5.6-20.3,0
		C5.4,60.3,5.4,51.2,11,45.6z"/>
	<path class="st9" d="M11.4,46c5.4-5.4,14.1-5.4,19.5,0c5.4,5.4,5.4,14.1,0,19.5c-5.4,5.4-14.1,5.4-19.5,0C6,60.1,6,51.4,11.4,46z"
		/>
	<path class="st10" d="M11.8,46.4c5.2-5.2,13.6-5.2,18.7,0c5.2,5.2,5.2,13.6,0,18.7c-5.2,5.2-13.6,5.2-18.7,0
		C6.6,59.9,6.6,51.5,11.8,46.4z"/>
	<path class="st11" d="M12.2,46.8c4.9-4.9,13-4.9,17.9,0c4.9,4.9,4.9,13,0,17.9c-4.9,4.9-13,4.9-17.9,0C7.3,59.8,7.3,51.7,12.2,46.8
		z"/>
	<path class="st12" d="M12.6,47.2c4.7-4.7,12.4-4.7,17.1,0c4.7,4.7,4.7,12.4,0,17.1C25,69,17.3,69,12.6,64.3
		C7.9,59.6,7.9,51.9,12.6,47.2z"/>
	<path class="st13" d="M13,47.6c4.5-4.5,11.8-4.5,16.3,0c4.5,4.5,4.5,11.8,0,16.3c-4.5,4.5-11.8,4.5-16.3,0
		C8.5,59.4,8.5,52.1,13,47.6z"/>
	<path class="st14" d="M13.4,48c4.3-4.3,11.2-4.3,15.5,0c4.3,4.3,4.3,11.2,0,15.5c-4.3,4.3-11.2,4.3-15.5,0
		C9.1,59.2,9.1,52.3,13.4,48z"/>
	<path class="st15" d="M13.8,48.4c4.1-4.1,10.6-4.1,14.7,0c4.1,4.1,4.1,10.6,0,14.7c-4.1,4.1-10.6,4.1-14.7,0
		C9.8,59,9.8,52.5,13.8,48.4z"/>
	<path class="st16" d="M14.2,48.8c3.8-3.8,10.1-3.8,13.9,0c3.8,3.8,3.8,10.1,0,13.9c-3.8,3.8-10.1,3.8-13.9,0
		C10.4,58.9,10.4,52.6,14.2,48.8z"/>
	<path class="st17" d="M14.6,49.2c3.6-3.6,9.5-3.6,13.1,0c3.6,3.6,3.6,9.5,0,13.1c-3.6,3.6-9.5,3.6-13.1,0
		C11,58.7,11,52.8,14.6,49.2z"/>
	<path class="st18" d="M15,49.6c3.4-3.4,8.9-3.4,12.3,0c3.4,3.4,3.4,8.9,0,12.3c-3.4,3.4-8.9,3.4-12.3,0C11.6,58.5,11.6,53,15,49.6z
		"/>
	<path class="st19" d="M15.4,50c3.2-3.2,8.3-3.2,11.5,0c3.2,3.2,3.2,8.3,0,11.5c-3.2,3.2-8.3,3.2-11.5,0
		C12.3,58.3,12.3,53.2,15.4,50z"/>
	<circle class="st20" cx="21.2" cy="55.7" r="7.5"/>
	<path class="st21" d="M16.2,50.8c2.7-2.7,7.1-2.7,9.9,0c2.7,2.7,2.7,7.1,0,9.9c-2.7,2.7-7.1,2.7-9.9,0C13.5,58,13.5,53.5,16.2,50.8
		z"/>
</g>
<path class="st22" d="M16.6,51.2c2.5-2.5,6.6-2.5,9.1,0c2.5,2.5,2.5,6.6,0,9.1c-2.5,2.5-6.6,2.5-9.1,0
	C14.1,57.8,14.1,53.7,16.6,51.2z"/>
<path class="st23" d="M63.4,33.2L63.4,33.2c0.5,0,1-0.2,1.2-0.6c0.3-0.4,0.4-0.9,0.4-1.5V8.7h-3.6v17.8L50.1,10.2
	c-0.4-0.6-0.8-1.1-1.1-1.3c-0.4-0.3-0.8-0.4-1.2-0.4c-0.6,0-1,0.2-1.3,0.6c-0.2,0.3-0.4,0.8-0.4,1.5v22.5h1.2c1.3,0,2.4-1.1,2.4-2.4
	V15.2L61,31.5c0.4,0.6,0.8,1,1.1,1.3C62.4,33.1,62.8,33.2,63.4,33.2z"/>
<path class="st23" d="M92,56.7L92,56.7c1.3,0,2.4,0.4,3.2,1.2c0.8,0.7,1.2,1.7,1.2,2.8c0,1.2-0.4,2.1-1.3,2.9
	c-0.8,0.8-1.9,1.1-3.2,1.1h-2.8c-0.5,0-0.7,0-0.8-0.1c-0.1-0.1-0.1-0.4-0.1-0.8v-6.1c0-0.5,0-0.8,0.1-0.9c0.1-0.1,0.3-0.1,0.8-0.1
	H92L92,56.7z M91.2,46.8L91.2,46.8c1.1,0,2,0.3,2.6,0.9c0.6,0.6,0.9,1.4,0.9,2.4c0,1-0.3,1.8-0.9,2.4c-0.6,0.7-1.5,1-2.6,1h-2
	c-0.5,0-0.7,0-0.8-0.1c-0.1-0.1-0.1-0.4-0.1-0.8v-4.8c0-0.5,0-0.8,0.1-0.9c0.1-0.1,0.3-0.1,0.8-0.1H91.2L91.2,46.8z M95.7,54.7
	L95.7,54.7c0.8-0.5,1.4-1.2,1.8-2.1c0.5-0.9,0.7-1.9,0.7-3c0-1.6-0.6-2.9-1.7-4.1c-1.3-1.3-2.9-1.9-4.9-1.9h-5.1
	c-0.6,0-1.1,0.2-1.4,0.6c-0.3,0.4-0.4,0.8-0.4,1.4V66c0,0.5,0.1,1,0.4,1.3c0.3,0.4,0.8,0.6,1.4,0.6H92c2.4,0,4.4-0.7,5.8-2.2
	c1.4-1.3,2.1-3,2.1-5.1c0-1.4-0.4-2.7-1.2-3.8C97.9,55.7,96.9,55,95.7,54.7z"/>
<path class="st23" d="M59.4,83.1h2.1c1.3,0,2.4-1.1,2.4-2.4v-1H49.4v3.4h4.5c0.8,0,1,0.2,1,1v20.1h3.6V84
	C58.5,83.2,58.5,83.1,59.4,83.1z"/>
<g>
	<path class="st24" d="M22.5,108.6c8.3,0,15,6.7,15,15c0,8.3-6.8,15-15,15c-8.3,0-15-6.7-15-15C7.4,115.4,14.2,108.6,22.5,108.6
		 M22.5,104.6c-10.5,0-19,8.5-19,19c0,10.5,8.5,19,19,19c10.5,0,19-8.5,19-19C41.5,113.1,33,104.6,22.5,104.6L22.5,104.6z"/>
</g>
</svg>
